<svg width="22" height="19" viewBox="0 0 22 19" fill="none" xmlns="http://www.w3.org/2000/svg">
<path d="M19.4164 3.9375H3.78125C3.41867 3.9375 3.125 3.64383 3.125 3.28125C3.125 2.91867 3.41867 2.625 3.78125 2.625H19.5312C19.8938 2.625 20.1875 2.33133 20.1875 1.96875C20.1875 0.881426 19.3061 0 18.2188 0H3.125C1.6751 0 0.5 1.1751 0.5 2.625V15.75C0.5 17.1999 1.6751 18.375 3.125 18.375H19.4164C20.5657 18.375 21.5 17.4919 21.5 16.4062V5.90625C21.5 4.82057 20.5657 3.9375 19.4164 3.9375ZM17.5625 12.4688C16.8378 12.4688 16.25 11.881 16.25 11.1562C16.25 10.4315 16.8378 9.84375 17.5625 9.84375C18.2872 9.84375 18.875 10.4315 18.875 11.1562C18.875 11.881 18.2872 12.4688 17.5625 12.4688Z" fill="url(#paint0_linear_769_1053)"/>
<defs>
<linearGradient id="paint0_linear_769_1053" x1="29.4747" y1="9.1875" x2="0.499998" y2="9.1875" gradientUnits="userSpaceOnUse">
<stop stop-color="#98D730"/>
<stop offset="1" stop-color="#00BF6D"/>
</linearGradient>
</defs>
</svg>
